<svg xmlns="http://www.w3.org/2000/svg" height="24" viewBox="0 96 960 960" width="24"><path d="M560 696q17 0 29.5-12.5T602 654q0-17-12.5-29.5T560 612q-17 0-29.5 12.5T518 654q0 17 12.5 29.5T560 696Zm-30-128h60q0-29 6-42.5t28-35.5q30-30 40-48.5t10-43.5q0-45-31.5-73.5T560 296q-41 0-71.5 23T446 380l54 22q9-25 24.5-37.5T560 352q24 0 39 13.5t15 36.5q0 14-8 26.5T578 460q-33 29-40.5 45.5T530 568ZM320 816q-33 0-56.5-23.5T240 736V256q0-33 23.5-56.5T320 176h480q33 0 56.5 23.5T880 256v480q0 33-23.5 56.5T800 816H320Zm0-80h480V256H320v480ZM160 976q-33 0-56.5-23.5T80 896V336h80v560h560v80H160Zm160-720v480-480Z"/></svg>